<?xml version="1.0" encoding="utf-8"?>
<!-- Generator: Adobe Illustrator 22.0.1, SVG Export Plug-In . SVG Version: 6.00 Build 0)  -->
<svg version="1.1" id="Layer_1" xmlns="http://www.w3.org/2000/svg" xmlns:xlink="http://www.w3.org/1999/xlink" x="0px" y="0px"
	 viewBox="0 0 193 75" style="enable-background:new 0 0 193 75;" xml:space="preserve">
<style type="text/css">
	.st0{fill:#FFFFFF;}
</style>
<g>
	<path class="st0" d="M39.6,22.1c-0.7,0.2-2,0.5-2.7,0.7c-0.2-5.2-0.4-10.5-0.6-15.7c-0.1-1.6-2.6-1.7-2.6,0
		c0.2,5.5,0.5,10.9,0.7,16.4c-2.5,0.6-5,1.3-7.5,2c-2.3,0.7-4.8,1.4-6.7,2.9c-2.8,2.2-2.6,5.1-2.2,8.3c0.4,3.5,1,7.5,3.9,9.9
		c5.7,4.9,12.8,1.4,14.8-5.3c1.5-5,0.6-10.7,0.4-15.9c1.6-0.4,1.8-0.5,3.3-0.9C41.8,24.1,41.2,21.7,39.6,22.1z M32,44.5
		c-2.7,2.8-6.8,2.3-9.3-0.6c-1.1-1.4-1.4-3.3-1.8-5c-0.4-1.9-1-4.3-0.6-6.3c0.5-2.5,3.6-3.5,5.7-4.1c2.8-0.9,5.6-1.6,8.4-2.3
		c0.1,2.3,0.2,4.6,0.3,7C34.9,36.9,34.9,41.5,32,44.5z"/>
	<path class="st0" d="M50.4,7.8l0-6.1c0-1.7-2.6-1.7-2.6,0l0,6.1C47.8,9.5,50.4,9.7,50.4,7.8z"/>
	<path class="st0" d="M19,17.6c0.8,0,1.4-0.6,1.4-1.4c0-0.8-0.6-1.4-1.4-1.4c-0.8,0-1.4,0.6-1.4,1.4C17.6,16.9,18.3,17.6,19,17.6z"
		/>
	<path class="st0" d="M25.8,15.3c0.8,0,1.4-0.6,1.4-1.4c0-0.8-0.6-1.4-1.4-1.4c-0.8,0-1.4,0.6-1.4,1.4C24.4,14.7,25,15.3,25.8,15.3z
		"/>
	<path class="st0" d="M125.3,62.8c1.3-1.6,2.5-3.1,3.7-4.7c-0.9-0.7-1.8-1.4-2.7-2.1c-1.2,1.4-2.2,2.7-3.4,4.1
		c-0.7-0.8-1.3-1.4-1.9-2.1c-0.7-0.8-1.4-1.6-2-2.4c4.8-4.2,5.7-6.8,3.7-9.6c-1.9-2.6-6.3-3.2-9.2-1.4c-3.1,1.9-3.2,4.6-0.4,9.9
		c-1.3,1-2.7,1.9-3.9,3.1c-3.7,3.6-2.3,9.5,2.6,11c4.1,1.2,7.9,0.4,11.2-3c1.5,3.3,4.1,3.5,7.1,2.9c-0.9-1.1-1.7-2-2.4-2.9
		C126.8,64.7,126.1,63.8,125.3,62.8z M115.8,47c1.2-0.8,2.7-0.6,3.7,0.5c1,1.2,0.7,2.4-0.2,3.4c-0.7,0.8-1.6,1.4-2.5,2.2
		c-0.7-1-1.3-1.8-1.8-2.7C114.3,49.1,114.5,47.9,115.8,47z M114.7,65.8c-1.5-0.1-2.8-0.8-3.4-2.3c-0.6-1.4-0.3-2.8,0.8-3.9
		c0.1-0.1,0.2-0.2,0.3-0.3c2.6-2.6,2.8-2.6,5.1,0.1c1,1.1,1.9,2.3,3,3.5C118.9,64.8,117.1,66,114.7,65.8z"/>
	<path class="st0" d="M95.9,50.8c-1.7,0.2-3.2,1.2-4.8,1.8c0-0.2-0.1-0.7-0.1-1.3c-1.2,0-2.3,0-3.4,0c0,7.8,0,15.5,0,23.3
		c1.3,0,2.5,0,3.8,0c0-2.5,0-4.9,0-7.5c5.6,3.8,11.3,1.6,12.7-4.7c0.3-1.4,0.3-2.8,0.2-4.3C103.8,53.5,100.4,50.3,95.9,50.8z
		 M95.9,65.7c-2.7,0-4.9-2.5-4.7-5.8c0.1-1.3,0.4-2.8,1.1-3.8c1.8-2.8,5.8-2.5,7.3,0.4c0.5,1,0.7,2.2,1,3.4
		C100.4,63.2,98.4,65.7,95.9,65.7z"/>
	<path class="st0" d="M69.3,27.6c0,0.8,0,1.7,0,2.5c0,2.8,0,5.6,0,8.4c1.3,0,2.5,0,3.8,0c0-4.4,0.1-8.7,0-12.9
		c-0.1-2.5-2-4.3-4.4-4.8c-2.3-0.4-4.6-0.2-6.7,1.7c0-2,0-3.6,0-5.3c0-2.1,0-2.9-0.7-3.2c0.5-0.5,1.1-1.1,1.6-1.6
		c1.1-1.2-0.7-3.1-1.8-1.8c-3,3.4-6.7,5.8-10.7,7.7l0-6.4c0-2-2.6-2-2.6,0.1l0,7.5c-1.5,0.6-3.1,1.1-4.7,1.7c-1.8,0.6-1,3,0.7,2.5
		c0.3-0.1,0.5-0.2,0.8-0.2c1.1-0.4,2.2-0.7,3.2-1.1v15c0,1.7,2.6,1.7,2.6,0V21.1c2.8-1.2,5.4-2.7,7.9-4.5c0,7.2,0,14.5,0,21.9
		c1.3,0,2.4,0,3.7,0c0-0.6,0.1-1.1,0.1-1.6c0-3,0-6.1,0-9.1c0-2.1,1.7-3.8,3.7-3.8C67.9,23.9,69.2,25.3,69.3,27.6z"/>
	<path class="st0" d="M59.1,50.8c-1.9,0.1-3.8,0.7-5.7,1c0,0.2,0,0.1,0-0.1c0-1.5,0-3,0-4.5c0-3.5,0-3.5-3.5-3.2
		c-0.1,0-0.2,0.1-0.2,0.2c0,8.1,0,16.2,0,24.2c1.3,0,2.5,0,3.8,0c0-0.8,0-1.4,0-2.1c0-2.9-0.1-5.7,0-8.6c0.1-2.8,2.7-4.6,5.2-3.5
		c1.4,0.6,2,1.8,2,3.3c0,3.6,0,7.2,0,10.9c1.4,0,2.5,0,3.9,0c0-4.3,0.1-8.4,0-12.5C64.5,53,62.2,50.7,59.1,50.8z"/>
	<path class="st0" d="M80.4,51.5c-3.5-1.6-9.4-1.2-12.1,3.1c0.8,0.7,1.6,1.4,2.4,2.2c2.1-2,4.3-3.7,7.4-2.5c1.3,0.5,1.8,1.5,1.6,3
		c-0.3,0.1-0.5,0.1-0.8,0.2c-2.8,0.8-5.7,1.4-8.5,2.5c-2,0.8-2.4,2.8-2.3,4.8c0.1,1.9,1.2,3.1,2.9,3.7c3.1,1,6.1,0.9,8.8-1.4
		c0.1,0.6,0.2,1,0.2,1.4c1.2,0,2.2,0,3.4,0c0-4.3,0.1-8.5,0-12.6C83.3,53.9,82.2,52.4,80.4,51.5z M73.5,65.7
		c-0.7-0.3-1.4-1.1-1.5-1.7c-0.1-0.5,0.5-1.6,1.1-1.8c2.1-0.8,4.3-1.4,6.5-2.1C80.1,64.3,76.9,67.1,73.5,65.7z"/>
	<path class="st0" d="M92.9,35.3c-0.7-0.7-1.4-1.4-2-2.1c-3.9,2.7-5.9,3.1-8.1,1.9c-1.6-0.9-2.3-2.4-2.5-4.4c4.2,0,8.3,0,12.5,0
		c0.3-3.5,0-6.7-2.9-8.7c-2.8-1.9-5.8-1.9-8.8-0.5c-3.3,1.4-5,5.3-4.6,9.7c0.4,4,2.6,6.7,6.4,7.6C86.7,39.8,90.9,38.3,92.9,35.3z
		 M84.9,23.7c2.5,0.1,4,1.5,4.1,4.1c-2.8,0-5.6,0-8.3,0C80.9,25.4,82.7,23.7,84.9,23.7z"/>
	<path class="st0" d="M170.3,44.5c-0.2,0-0.5,0.1-0.7,0.2c-1.5,1.4-3,2.2-4.6,2.5c0,0,0-0.1,0-0.1c1-2.7,1.5-5,1.5-7
		c0-0.6-0.1-1.2-0.2-1.8c-0.4-2.2-1.4-3.6-3.1-4.1c-0.4-0.1-0.8-0.2-1.2-0.2H162c-1.2,0-2.3,0.5-3.4,1.4c-1.4,1.2-2.4,3-2.8,5.3
		c-0.1,0.1-0.1,0.2-0.2,0.2c-0.4,1.3-0.7,2.6-0.9,3.9c0,0,0,0,0,0c-2.7,3.4-5,6-7.2,8c0-2.8,0-5.7,0-8.5c-1.2,0-2.3,0-3.6,0
		c0,2.9,0,5.6,0,8.6c-0.4-0.3-0.6-0.4-0.8-0.5c-1.5-1.1-3.1-1.6-4.7-1.6c0.2-2.2,0.7-4.5,1.7-6.8c0.7-1.6,1.6-3.1,2.8-4.5
		c1.2-1.4,2.2-2.3,3.1-2.7c0.4-0.2,0.6-0.2,0.8-0.2c0,0,0.1,0,0.1,0.1c0,0.1,0.1,0.3,0.1,0.6c0,0.9-0.2,2.1-0.7,3.5
		c0,0.1-0.1,0.2-0.1,0.3c0,0.2,0.1,0.5,0.3,0.6s0.4,0.3,0.6,0.3c0.5,0,0.8-0.2,0.9-0.6c0.6-1.7,0.9-3,0.9-4c0-0.6-0.1-1.1-0.3-1.5
		c-0.3-0.7-0.9-1.1-1.6-1.2c-0.2,0-0.3,0-0.5,0c-0.4,0-0.9,0.1-1.4,0.4c-1.2,0.6-2.5,1.7-3.8,3.2c-1.3,1.5-2.3,3.2-3.1,5
		c-1.1,2.6-1.7,5.2-1.8,7.8c-2.1,0.6-3.9,2.1-4.8,4.4c-0.7,1.9-0.9,4.2-0.8,6.3c0.2,3.1,1.6,5.8,4.8,6.9c3,1.1,5.8,0.6,8.3-1.9
		c0.1,0.7,0.2,1.3,0.3,1.9c1.1,0,2,0,3.2,0c0-4.5,0-9,0-13.4c2.1-1.7,4.5-4.2,7.1-7.3c0,0.2,0,0.4,0,0.5c0.1,1.1,0.4,2.1,0.7,2.9
		c0.3,0.8,0.8,1.5,1.4,2c0.6,0.6,1.3,0.9,2.1,0.9c0.8,0,1.5-0.3,2.3-0.8c1.1-0.8,2.1-2.2,3-4.1c2.4-0.1,4.6-1.2,6.7-3.1
		c0.2-0.2,0.3-0.4,0.3-0.7c0-0.2-0.1-0.5-0.3-0.6S170.5,44.5,170.3,44.5z M142.8,56c-0.6,0.2-1.1,0.4-1.5,0.4
		c-0.7,0-1.2-0.1-1.6-0.4c-0.5-0.4-0.8-1-1-1.8c0.2,0,0.4-0.1,0.6-0.1C140.7,54.1,142,54.8,142.8,56z M139.3,65.8
		c-2.6,0-4.5-2.5-4.5-5.8c0-2.2,0.9-4,2.2-5c0.3,1.1,0.8,1.9,1.5,2.6c0.7,0.6,1.5,0.9,2.5,0.9c0.2,0,0.3,0,0.5-0.1
		c0.7-0.1,1.4-0.3,2.2-0.6c0.2,0.7,0.3,1.5,0.3,2.3C144,63.3,142,65.8,139.3,65.8z M160,51.8c-0.4,0.3-0.8,0.4-1.2,0.4
		c-0.3,0-0.6-0.1-0.9-0.4c-0.8-0.7-1.3-1.9-1.4-3.6c0-0.4-0.1-0.8-0.1-1.2c0-0.6,0-1.2,0.1-1.8c0.8,1.4,2,2.5,3.5,3.3
		c0.6,0.3,1.3,0.5,2,0.6C161.4,50.4,160.7,51.3,160,51.8z M163.3,46.5c-0.1,0.2-0.2,0.5-0.4,0.9c-0.7-0.1-1.4-0.3-2-0.6
		c-1-0.5-1.9-1.2-2.5-2.1c-0.6-0.9-0.9-1.9-0.9-2.8c0-0.2,0-0.5,0.1-0.7c0.3-1.9,1-3.4,2.2-4.4c0.7-0.6,1.4-0.9,2.2-0.9
		c0.2,0,0.5,0,0.7,0.1c1,0.3,1.6,1.2,1.9,2.7c0.1,0.5,0.1,0.9,0.1,1.4C164.7,41.9,164.2,44,163.3,46.5z"/>
	<path class="st0" d="M175.1,50.7c-0.2-0.2-0.4-0.3-0.6-0.3c-0.3,0-0.5,0.1-0.6,0.2c-0.2,0.2-0.3,0.3-0.3,0.6c0,0.3-0.1,0.6-0.2,0.8
		c0,0.1-0.1,0.3-0.1,0.4c0,0.2,0.1,0.5,0.3,0.6c0.2,0.2,0.4,0.3,0.6,0.3c0.4,0,0.7-0.2,0.9-0.6c0.2-0.5,0.3-0.9,0.4-1.3
		c0-0.1,0-0.1,0-0.2C175.4,51.1,175.3,50.9,175.1,50.7z"/>
</g>
</svg>
